<svg xmlns="http://www.w3.org/2000/svg" xmlns:xlink="http://www.w3.org/1999/xlink" width="128" height="128" viewBox="0 0 128 128" fill="none">
<path d="M44.8 43.52C44.8 48 48.64 51.84 53.76 51.84C58.24 51.84 62.72 48 62.72 43.52C62.72 39.04 58.88 35.2 53.76 35.2C48.64 35.84 44.8 39.04 44.8 43.52Z"   fill="#B6B7B9" >
</path>
<path d="M114.56 14.08L13.44 14.08L13.44 115.2L40.32 115.2L40.32 106.88L32.64 106.88L32.64 71.68C33.28 71.68 33.92 72.32 35.2 72.32L53.12 67.2L54.4 67.2L59.52 80.64L44.8 94.72C42.88 96 42.88 98.56 44.16 99.84L53.76 109.44C55.68 111.36 58.88 111.36 61.44 110.08C64 108.8 64 106.24 62.08 104.32L55.68 97.92L67.2 87.68L81.28 102.4C81.92 103.04 82.56 103.68 83.2 103.68C85.12 104.32 87.04 104.32 88.32 103.68L105.6 96.64C108.16 95.36 108.8 92.8 107.52 91.52C106.24 89.6 104.32 88.32 101.76 89.6L87.04 95.36C87.04 95.36 83.2 92.16 77.44 85.76L71.04 60.8L87.04 62.08L87.04 71.04C87.04 71.04 87.04 73.6 91.52 73.6C91.52 73.6 95.36 73.6 94.72 70.4L94.72 56.32C94.72 55.04 93.44 53.76 91.52 53.76L64 51.84L60.8 51.84C55.68 53.12 52.48 55.68 51.2 59.52L51.2 60.16L34.56 64.64C33.92 65.28 32.64 65.28 32 65.92L32 24.96L99.84 24.96L99.84 84.48L100.48 84.48C101.76 83.84 103.04 83.84 103.68 83.84C107.52 83.84 110.08 87.04 110.72 87.68C112 89.6 112.64 92.16 112 94.08C111.36 96.64 109.44 98.56 106.88 99.84L99.2 103.04L99.2 115.2L115.2 115.2L115.2 14.08L114.56 14.08Z"   fill="#B6B7B9" >
</path>
</svg>
