<svg xmlns="http://www.w3.org/2000/svg" xmlns:xlink="http://www.w3.org/1999/xlink" width="16" height="16" viewBox="0 0 64 64" fill="none">
<path d="M22.4 21.76C22.4 24 24.32 25.92 26.88 25.92C29.12 25.92 31.36 24 31.36 21.76C31.36 19.52 29.44 17.6 26.88 17.6C24.32 17.92 22.4 19.52 22.4 21.76Z"   fill="#B6B7B9" >
</path>
<path d="M57.28 7.04001L6.71997 7.04001L6.71997 57.6L20.16 57.6L20.16 53.44L16.32 53.44L16.32 35.84C16.64 35.84 16.96 36.16 17.6 36.16L26.56 33.6L27.2 33.6L29.76 40.32L22.4 47.36C21.44 48 21.44 49.28 22.08 49.92L26.88 54.72C27.84 55.68 29.44 55.68 30.72 55.04C32 54.4 32 53.12 31.04 52.16L27.84 48.96L33.6 43.84L40.64 51.2C40.96 51.52 41.28 51.84 41.6 51.84C42.56 52.16 43.52 52.16 44.16 51.84L52.8 48.32C54.08 47.68 54.4 46.4 53.76 45.76C53.12 44.8 52.16 44.16 50.88 44.8L43.52 47.68C43.52 47.68 41.6 46.08 38.72 42.88L35.52 30.4L43.52 31.04L43.52 35.52C43.52 35.52 43.52 36.8 45.76 36.8C45.76 36.8 47.68 36.8 47.36 35.2L47.36 28.16C47.36 27.52 46.72 26.88 45.76 26.88L32 25.92L30.4 25.92C27.84 26.56 26.24 27.84 25.6 29.76L25.6 30.08L17.28 32.32C16.96 32.64 16.32 32.64 16 32.96L16 12.48L49.92 12.48L49.92 42.24L50.24 42.24C50.88 41.92 51.52 41.92 51.84 41.92C53.76 41.92 55.04 43.52 55.36 43.84C56 44.8 56.32 46.08 56 47.04C55.68 48.32 54.72 49.28 53.44 49.92L49.6 51.52L49.6 57.6L57.6 57.6L57.6 7.04001L57.28 7.04001Z"   fill="#B6B7B9" >
</path>
</svg>
